<?xml version="1.0" encoding="utf-8"?>
<!-- Generator: Adobe Illustrator 23.0.5, SVG Export Plug-In . SVG Version: 6.00 Build 0)  -->
<svg version="1.1" xmlns="http://www.w3.org/2000/svg" xmlns:xlink="http://www.w3.org/1999/xlink" x="0px" y="0px"
	 viewBox="0 0 50 50" style="enable-background:new 0 0 50 50;" xml:space="preserve">
<style type="text/css">
	.st0{fill:#FFFFFF;}
</style>
<g id="Layer_1">
</g>
<g id="Layer_2">
	<g>
		<path class="st0" d="M9.77,4.94H27.4c2.64,0,4.82,0.64,6.52,1.92c1.7,1.28,2.94,2.84,3.7,4.67c0.81,1.98,1.03,3.99,0.65,6.04
			c-0.38,2.05-1.64,3.8-3.78,5.25c2.39,0.97,4.07,2.38,5.04,4.23c0.97,1.86,1.45,3.78,1.45,5.75c0,1.5-0.25,2.97-0.76,4.41
			c-0.51,1.45-1.27,2.74-2.29,3.87c-1.02,1.13-2.29,2.05-3.82,2.75c-1.53,0.7-3.31,1.05-5.34,1.05H15.88v-5.72h12.89
			c2.03,0,3.59-0.65,4.65-1.95c1.07-1.3,1.6-2.77,1.6-4.41c0-0.77-0.14-1.53-0.42-2.28c-0.28-0.75-0.69-1.42-1.22-2.03
			c-0.53-0.6-1.18-1.09-1.94-1.45c-0.76-0.36-1.65-0.54-2.67-0.54H15.88l-6.1-5.65h17.47c1.68,0,2.94-0.54,3.78-1.63
			c0.84-1.09,1.27-2.29,1.3-3.62c0.02-1.33-0.37-2.53-1.18-3.62c-0.81-1.09-2.06-1.63-3.74-1.63H15.88L9.77,4.94z"/>
	</g>
</g>
</svg>
