<svg id="Group" xmlns="http://www.w3.org/2000/svg" width="52.2" height="52.2" viewBox="0 0 52.2 52.2">
  <path id="Path_2" data-name="Path 2" d="M50.233,24.133A1.967,1.967,0,0,0,48.265,26.1,22.165,22.165,0,1,1,26.1,3.935,1.967,1.967,0,1,0,26.1,0,26.1,26.1,0,1,0,52.2,26.1,1.967,1.967,0,0,0,50.233,24.133Z" fill="#393939"/>
  <g id="Group_2" data-name="Group 2" transform="translate(12.394 6.558)">
    <g id="Group_1" data-name="Group 1">
      <path id="Path_1" data-name="Path 1" d="M159.881,64.905a1.967,1.967,0,0,0-2.782,0L133.5,88.441l-8.515-9.248a1.967,1.967,0,1,0-2.895,2.665l9.9,10.754a1.965,1.965,0,0,0,1.405.634h.042a1.97,1.97,0,0,0,1.389-.574l25.051-24.985A1.967,1.967,0,0,0,159.881,64.905Z" transform="translate(-121.568 -64.327)" fill="#393939"/>
    </g>
  </g>
</svg>
